<svg id="visual" viewBox="0 0 900 600" width="900" height="600" xmlns="http://www.w3.org/2000/svg" xmlns:xlink="http://www.w3.org/1999/xlink" version="1.1"><rect x="0" y="0" width="900" height="600" fill="#2d97ff"></rect><defs><linearGradient id="grad1_0" x1="33.3%" y1="0%" x2="100%" y2="100%"><stop offset="20%" stop-color="#d3ebff" stop-opacity="1"></stop><stop offset="80%" stop-color="#d3ebff" stop-opacity="1"></stop></linearGradient></defs><defs><linearGradient id="grad1_1" x1="33.3%" y1="0%" x2="100%" y2="100%"><stop offset="20%" stop-color="#d3ebff" stop-opacity="1"></stop><stop offset="80%" stop-color="#85c3ff" stop-opacity="1"></stop></linearGradient></defs><defs><linearGradient id="grad1_2" x1="33.3%" y1="0%" x2="100%" y2="100%"><stop offset="20%" stop-color="#2d97ff" stop-opacity="1"></stop><stop offset="80%" stop-color="#85c3ff" stop-opacity="1"></stop></linearGradient></defs><defs><linearGradient id="grad2_0" x1="0%" y1="0%" x2="66.7%" y2="100%"><stop offset="20%" stop-color="#d3ebff" stop-opacity="1"></stop><stop offset="80%" stop-color="#d3ebff" stop-opacity="1"></stop></linearGradient></defs><defs><linearGradient id="grad2_1" x1="0%" y1="0%" x2="66.7%" y2="100%"><stop offset="20%" stop-color="#85c3ff" stop-opacity="1"></stop><stop offset="80%" stop-color="#d3ebff" stop-opacity="1"></stop></linearGradient></defs><defs><linearGradient id="grad2_2" x1="0%" y1="0%" x2="66.7%" y2="100%"><stop offset="20%" stop-color="#85c3ff" stop-opacity="1"></stop><stop offset="80%" stop-color="#2d97ff" stop-opacity="1"></stop></linearGradient></defs><g transform="translate(900, 0)"><path d="M0 540.8C-49.5 516.7 -99 492.5 -156.4 481.2C-213.7 470 -279 471.6 -317.9 437.5C-356.8 403.5 -369.5 333.8 -385.9 280.4C-402.3 227 -422.5 189.9 -448.9 145.9C-475.3 101.8 -508.1 50.9 -540.8 0L0 0Z" fill="#5dadff"></path><path d="M0 360.6C-33 344.4 -66 328.3 -104.2 320.8C-142.5 313.3 -186 314.4 -211.9 291.7C-237.9 269 -246.3 222.5 -257.3 186.9C-268.2 151.3 -281.6 126.6 -299.3 97.2C-316.9 67.9 -338.7 33.9 -360.6 0L0 0Z" fill="#acd7ff"></path><path d="M0 180.3C-16.5 172.2 -33 164.2 -52.1 160.4C-71.2 156.7 -93 157.2 -106 145.8C-118.9 134.5 -123.2 111.3 -128.6 93.5C-134.1 75.7 -140.8 63.3 -149.6 48.6C-158.4 33.9 -169.4 17 -180.3 0L0 0Z" fill="#d3ebff"></path></g><g transform="translate(0, 600)"><path d="M0 -540.8C61 -541.6 121.9 -542.3 167.1 -514.4C212.3 -486.4 241.7 -429.9 283.9 -390.8C326.1 -351.6 381.2 -329.9 395.6 -287.4C410.1 -245 383.9 -181.8 401.3 -130.4C418.8 -79 479.8 -39.5 540.8 0L0 0Z" fill="#5dadff"></path><path d="M0 -360.6C40.6 -361 81.3 -361.5 111.4 -342.9C141.5 -324.3 161.1 -286.6 189.3 -260.5C217.4 -234.4 254.1 -219.9 263.7 -191.6C273.4 -163.3 255.9 -121.2 267.6 -86.9C279.2 -52.7 319.9 -26.3 360.6 0L0 0Z" fill="#acd7ff"></path><path d="M0 -180.3C20.3 -180.5 40.6 -180.8 55.7 -171.5C70.8 -162.1 80.6 -143.3 94.6 -130.3C108.7 -117.2 127.1 -110 131.9 -95.8C136.7 -81.7 128 -60.6 133.8 -43.5C139.6 -26.3 159.9 -13.2 180.3 0L0 0Z" fill="#d3ebff"></path></g></svg>