<svg id="visual" viewBox="0 0 900 675" width="900" height="675" xmlns="http://www.w3.org/2000/svg" xmlns:xlink="http://www.w3.org/1999/xlink" version="1.1"><g stroke-width="1" stroke-linejoin="bevel"><path d="M439 414.7L530 464.1L526 410.7Z" fill="#2d97ff" stroke="#2d97ff"></path><path d="M439 414.7L418 507.1L530 464.1Z" fill="#2d97ff" stroke="#2d97ff"></path><path d="M418 507.1L533 558.6L530 464.1Z" fill="#d3ebff" stroke="#d3ebff"></path><path d="M533 558.6L584 521.1L530 464.1Z" fill="#d3ebff" stroke="#d3ebff"></path><path d="M530 464.1L593 351.7L526 410.7Z" fill="#c3e3ff" stroke="#c3e3ff"></path><path d="M584 521.1L593 351.7L530 464.1Z" fill="#65b2ff" stroke="#65b2ff"></path><path d="M526 410.7L523 292.3L439 414.7Z" fill="#65b2ff" stroke="#65b2ff"></path><path d="M593 351.7L523 292.3L526 410.7Z" fill="#d3ebff" stroke="#d3ebff"></path><path d="M418 507.1L406 601.6L533 558.6Z" fill="#a4d3ff" stroke="#a4d3ff"></path><path d="M533 558.6L572 604.6L584 521.1Z" fill="#54a9ff" stroke="#54a9ff"></path><path d="M474 675L572 604.6L533 558.6Z" fill="#75baff" stroke="#75baff"></path><path d="M300 380.7L300 485.1L439 414.7Z" fill="#85c3ff" stroke="#85c3ff"></path><path d="M439 414.7L300 485.1L418 507.1Z" fill="#65b2ff" stroke="#65b2ff"></path><path d="M418 507.1L300 485.1L406 601.6Z" fill="#54a9ff" stroke="#54a9ff"></path><path d="M383 253.3L300 380.7L439 414.7Z" fill="#d3ebff" stroke="#d3ebff"></path><path d="M593 351.7L595 266.3L523 292.3Z" fill="#95cbff" stroke="#95cbff"></path><path d="M706 544.6L689 489.1L584 521.1Z" fill="#54a9ff" stroke="#54a9ff"></path><path d="M584 521.1L689 489.1L593 351.7Z" fill="#2d97ff" stroke="#2d97ff"></path><path d="M593 351.7L671 280.3L595 266.3Z" fill="#54a9ff" stroke="#54a9ff"></path><path d="M375 227.9L383 253.3L476 194.9Z" fill="#d3ebff" stroke="#d3ebff"></path><path d="M523 292.3L383 253.3L439 414.7Z" fill="#2d97ff" stroke="#2d97ff"></path><path d="M406 601.6L474 675L533 558.6Z" fill="#85c3ff" stroke="#85c3ff"></path><path d="M476 194.9L383 253.3L523 292.3Z" fill="#a4d3ff" stroke="#a4d3ff"></path><path d="M383 253.3L338 250.3L300 380.7Z" fill="#c3e3ff" stroke="#c3e3ff"></path><path d="M375 227.9L338 250.3L383 253.3Z" fill="#75baff" stroke="#75baff"></path><path d="M321 675L425 675L406 601.6Z" fill="#54a9ff" stroke="#54a9ff"></path><path d="M406 601.6L425 675L474 675Z" fill="#2d97ff" stroke="#2d97ff"></path><path d="M734 675L706 544.6L572 604.6Z" fill="#65b2ff" stroke="#65b2ff"></path><path d="M572 604.6L706 544.6L584 521.1Z" fill="#d3ebff" stroke="#d3ebff"></path><path d="M595 266.3L476 194.9L523 292.3Z" fill="#2d97ff" stroke="#2d97ff"></path><path d="M721 356.7L671 280.3L593 351.7Z" fill="#54a9ff" stroke="#54a9ff"></path><path d="M595 266.3L636 162.9L476 194.9Z" fill="#54a9ff" stroke="#54a9ff"></path><path d="M721 356.7L593 351.7L689 489.1Z" fill="#95cbff" stroke="#95cbff"></path><path d="M474 675L567 675L572 604.6Z" fill="#a4d3ff" stroke="#a4d3ff"></path><path d="M300 485.1L296 605.6L406 601.6Z" fill="#42a0ff" stroke="#42a0ff"></path><path d="M198 575.6L296 605.6L300 485.1Z" fill="#75baff" stroke="#75baff"></path><path d="M771 410.7L721 356.7L689 489.1Z" fill="#75baff" stroke="#75baff"></path><path d="M296 605.6L321 675L406 601.6Z" fill="#c3e3ff" stroke="#c3e3ff"></path><path d="M812 452.1L771 410.7L689 489.1Z" fill="#54a9ff" stroke="#54a9ff"></path><path d="M704 176.9L636 162.9L671 280.3Z" fill="#b4dbff" stroke="#b4dbff"></path><path d="M375 69.4L302 196.9L375 227.9Z" fill="#a4d3ff" stroke="#a4d3ff"></path><path d="M375 227.9L302 196.9L338 250.3Z" fill="#c3e3ff" stroke="#c3e3ff"></path><path d="M338 250.3L169 326.3L300 380.7Z" fill="#54a9ff" stroke="#54a9ff"></path><path d="M168 423.7L185 503.1L300 485.1Z" fill="#c3e3ff" stroke="#c3e3ff"></path><path d="M168 423.7L300 485.1L300 380.7Z" fill="#c3e3ff" stroke="#c3e3ff"></path><path d="M296 605.6L160 675L321 675Z" fill="#2d97ff" stroke="#2d97ff"></path><path d="M734 675L772 541.6L706 544.6Z" fill="#75baff" stroke="#75baff"></path><path d="M706 544.6L772 541.6L689 489.1Z" fill="#65b2ff" stroke="#65b2ff"></path><path d="M185 503.1L198 575.6L300 485.1Z" fill="#65b2ff" stroke="#65b2ff"></path><path d="M169 326.3L168 423.7L300 380.7Z" fill="#a4d3ff" stroke="#a4d3ff"></path><path d="M185 503.1L115 584.6L198 575.6Z" fill="#65b2ff" stroke="#65b2ff"></path><path d="M770 283.3L671 280.3L721 356.7Z" fill="#b4dbff" stroke="#b4dbff"></path><path d="M671 280.3L636 162.9L595 266.3Z" fill="#c3e3ff" stroke="#c3e3ff"></path><path d="M476 194.9L462 109.4L375 227.9Z" fill="#42a0ff" stroke="#42a0ff"></path><path d="M771 410.7L770 283.3L721 356.7Z" fill="#a4d3ff" stroke="#a4d3ff"></path><path d="M772 541.6L812 452.1L689 489.1Z" fill="#2d97ff" stroke="#2d97ff"></path><path d="M771 410.7L900 358.7L770 283.3Z" fill="#75baff" stroke="#75baff"></path><path d="M616 104.4L462 109.4L476 194.9Z" fill="#65b2ff" stroke="#65b2ff"></path><path d="M302 196.9L169 326.3L338 250.3Z" fill="#54a9ff" stroke="#54a9ff"></path><path d="M567 675L734 675L572 604.6Z" fill="#a4d3ff" stroke="#a4d3ff"></path><path d="M772 541.6L900 495.1L812 452.1Z" fill="#2d97ff" stroke="#2d97ff"></path><path d="M763 208.9L704 176.9L671 280.3Z" fill="#42a0ff" stroke="#42a0ff"></path><path d="M636 162.9L616 104.4L476 194.9Z" fill="#b4dbff" stroke="#b4dbff"></path><path d="M704 176.9L616 104.4L636 162.9Z" fill="#75baff" stroke="#75baff"></path><path d="M770 283.3L763 208.9L671 280.3Z" fill="#42a0ff" stroke="#42a0ff"></path><path d="M704 176.9L738 77.4L616 104.4Z" fill="#65b2ff" stroke="#65b2ff"></path><path d="M900 219.9L763 208.9L770 283.3Z" fill="#95cbff" stroke="#95cbff"></path><path d="M734 675L773 675L772 541.6Z" fill="#a4d3ff" stroke="#a4d3ff"></path><path d="M319 58.4L192 195.9L302 196.9Z" fill="#54a9ff" stroke="#54a9ff"></path><path d="M302 196.9L192 195.9L169 326.3Z" fill="#b4dbff" stroke="#b4dbff"></path><path d="M462 109.4L375 69.4L375 227.9Z" fill="#d3ebff" stroke="#d3ebff"></path><path d="M405 0L375 69.4L462 109.4Z" fill="#b4dbff" stroke="#b4dbff"></path><path d="M80 394.7L168 423.7L169 326.3Z" fill="#2d97ff" stroke="#2d97ff"></path><path d="M80 394.7L94 473.1L168 423.7Z" fill="#75baff" stroke="#75baff"></path><path d="M168 423.7L94 473.1L185 503.1Z" fill="#b4dbff" stroke="#b4dbff"></path><path d="M94 473.1L115 584.6L185 503.1Z" fill="#75baff" stroke="#75baff"></path><path d="M198 575.6L160 675L296 605.6Z" fill="#d3ebff" stroke="#d3ebff"></path><path d="M115 584.6L160 675L198 575.6Z" fill="#2d97ff" stroke="#2d97ff"></path><path d="M92 270.3L80 394.7L169 326.3Z" fill="#85c3ff" stroke="#85c3ff"></path><path d="M375 69.4L319 58.4L302 196.9Z" fill="#65b2ff" stroke="#65b2ff"></path><path d="M405 0L319 58.4L375 69.4Z" fill="#85c3ff" stroke="#85c3ff"></path><path d="M900 593.6L900 495.1L772 541.6Z" fill="#42a0ff" stroke="#42a0ff"></path><path d="M812 452.1L900 358.7L771 410.7Z" fill="#65b2ff" stroke="#65b2ff"></path><path d="M900 495.1L900 358.7L812 452.1Z" fill="#d3ebff" stroke="#d3ebff"></path><path d="M98 230.9L92 270.3L169 326.3Z" fill="#85c3ff" stroke="#85c3ff"></path><path d="M98 230.9L169 326.3L192 195.9Z" fill="#65b2ff" stroke="#65b2ff"></path><path d="M65 87.4L98 230.9L192 195.9Z" fill="#a4d3ff" stroke="#a4d3ff"></path><path d="M616 104.4L467 0L462 109.4Z" fill="#b4dbff" stroke="#b4dbff"></path><path d="M900 358.7L900 294.3L770 283.3Z" fill="#b4dbff" stroke="#b4dbff"></path><path d="M763 208.9L738 77.4L704 176.9Z" fill="#2d97ff" stroke="#2d97ff"></path><path d="M616 104.4L627 0L467 0Z" fill="#95cbff" stroke="#95cbff"></path><path d="M773 675L900 593.6L772 541.6Z" fill="#a4d3ff" stroke="#a4d3ff"></path><path d="M817 92.4L738 77.4L763 208.9Z" fill="#75baff" stroke="#75baff"></path><path d="M467 0L405 0L462 109.4Z" fill="#75baff" stroke="#75baff"></path><path d="M0 562.6L93 675L115 584.6Z" fill="#a4d3ff" stroke="#a4d3ff"></path><path d="M115 584.6L93 675L160 675Z" fill="#d3ebff" stroke="#d3ebff"></path><path d="M0 562.6L115 584.6L94 473.1Z" fill="#a4d3ff" stroke="#a4d3ff"></path><path d="M738 77.4L627 0L616 104.4Z" fill="#a4d3ff" stroke="#a4d3ff"></path><path d="M900 294.3L900 219.9L770 283.3Z" fill="#42a0ff" stroke="#42a0ff"></path><path d="M773 675L900 675L900 593.6Z" fill="#b4dbff" stroke="#b4dbff"></path><path d="M900 219.9L817 92.4L763 208.9Z" fill="#85c3ff" stroke="#85c3ff"></path><path d="M738 77.4L730 0L627 0Z" fill="#b4dbff" stroke="#b4dbff"></path><path d="M80 394.7L0 445.1L94 473.1Z" fill="#c3e3ff" stroke="#c3e3ff"></path><path d="M0 411.7L0 445.1L80 394.7Z" fill="#b4dbff" stroke="#b4dbff"></path><path d="M0 411.7L80 394.7L0 281.3Z" fill="#c3e3ff" stroke="#c3e3ff"></path><path d="M0 281.3L80 394.7L92 270.3Z" fill="#a4d3ff" stroke="#a4d3ff"></path><path d="M405 0L277 0L319 58.4Z" fill="#65b2ff" stroke="#65b2ff"></path><path d="M319 58.4L169 61.4L192 195.9Z" fill="#c3e3ff" stroke="#c3e3ff"></path><path d="M219 0L169 61.4L319 58.4Z" fill="#2d97ff" stroke="#2d97ff"></path><path d="M98 230.9L0 281.3L92 270.3Z" fill="#95cbff" stroke="#95cbff"></path><path d="M0 445.1L0 562.6L94 473.1Z" fill="#2d97ff" stroke="#2d97ff"></path><path d="M815 0L730 0L738 77.4Z" fill="#85c3ff" stroke="#85c3ff"></path><path d="M0 196.9L0 281.3L98 230.9Z" fill="#a4d3ff" stroke="#a4d3ff"></path><path d="M277 0L219 0L319 58.4Z" fill="#95cbff" stroke="#95cbff"></path><path d="M0 562.6L0 675L93 675Z" fill="#54a9ff" stroke="#54a9ff"></path><path d="M65 87.4L0 196.9L98 230.9Z" fill="#a4d3ff" stroke="#a4d3ff"></path><path d="M65 87.4L192 195.9L169 61.4Z" fill="#c3e3ff" stroke="#c3e3ff"></path><path d="M131 0L65 87.4L169 61.4Z" fill="#2d97ff" stroke="#2d97ff"></path><path d="M900 219.9L900 82.4L817 92.4Z" fill="#d3ebff" stroke="#d3ebff"></path><path d="M817 92.4L815 0L738 77.4Z" fill="#d3ebff" stroke="#d3ebff"></path><path d="M900 82.4L815 0L817 92.4Z" fill="#c3e3ff" stroke="#c3e3ff"></path><path d="M219 0L131 0L169 61.4Z" fill="#d3ebff" stroke="#d3ebff"></path><path d="M65 87.4L0 119.4L0 196.9Z" fill="#85c3ff" stroke="#85c3ff"></path><path d="M0 0L0 119.4L65 87.4Z" fill="#95cbff" stroke="#95cbff"></path><path d="M900 82.4L900 0L815 0Z" fill="#95cbff" stroke="#95cbff"></path><path d="M131 0L0 0L65 87.4Z" fill="#75baff" stroke="#75baff"></path></g></svg>