<svg id="visual" viewBox="0 0 900 675" width="900" height="675" xmlns="http://www.w3.org/2000/svg" xmlns:xlink="http://www.w3.org/1999/xlink" version="1.1"><path d="M0 109L82 231L164 116L245 183L327 136L409 116L491 177L573 237L655 170L736 258L818 291L900 136L900 0L818 0L736 0L655 0L573 0L491 0L409 0L327 0L245 0L164 0L82 0L0 0Z" fill="#d3ebff"></path><path d="M0 258L82 359L164 251L245 318L327 285L409 197L491 285L573 366L655 291L736 325L818 359L900 305L900 134L818 289L736 256L655 168L573 235L491 175L409 114L327 134L245 181L164 114L82 229L0 107Z" fill="#acd7ff"></path><path d="M0 312L82 406L164 345L245 372L327 339L409 291L491 332L573 480L655 339L736 426L818 473L900 413L900 303L818 357L736 323L655 289L573 364L491 283L409 195L327 283L245 316L164 249L82 357L0 256Z" fill="#85c3ff"></path><path d="M0 399L82 521L164 447L245 487L327 473L409 366L491 433L573 555L655 406L736 534L818 555L900 480L900 411L818 471L736 424L655 337L573 478L491 330L409 289L327 337L245 370L164 343L82 404L0 310Z" fill="#5dadff"></path><path d="M0 676L82 676L164 676L245 676L327 676L409 676L491 676L573 676L655 676L736 676L818 676L900 676L900 478L818 553L736 532L655 404L573 553L491 431L409 364L327 471L245 485L164 445L82 519L0 397Z" fill="#2d97ff"></path></svg>