<svg id="visual" viewBox="0 0 900 675" width="900" height="675" xmlns="http://www.w3.org/2000/svg" xmlns:xlink="http://www.w3.org/1999/xlink" version="1.1"><path d="M0 163L150 163L150 204L300 204L300 237L450 237L450 183L600 183L600 156L750 156L750 298L900 298L900 177L900 0L900 0L750 0L750 0L600 0L600 0L450 0L450 0L300 0L300 0L150 0L150 0L0 0Z" fill="#d3ebff"></path><path d="M0 258L150 258L150 278L300 278L300 271L450 271L450 237L600 237L600 251L750 251L750 345L900 345L900 332L900 175L900 296L750 296L750 154L600 154L600 181L450 181L450 235L300 235L300 202L150 202L150 161L0 161Z" fill="#b9deff"></path><path d="M0 318L150 318L150 332L300 332L300 345L450 345L450 291L600 291L600 339L750 339L750 386L900 386L900 426L900 330L900 343L750 343L750 249L600 249L600 235L450 235L450 269L300 269L300 276L150 276L150 256L0 256Z" fill="#9fd1ff"></path><path d="M0 345L150 345L150 420L300 420L300 426L450 426L450 325L600 325L600 426L750 426L750 426L900 426L900 487L900 424L900 384L750 384L750 337L600 337L600 289L450 289L450 343L300 343L300 330L150 330L150 316L0 316Z" fill="#85c3ff"></path><path d="M0 487L150 487L150 555L300 555L300 541L450 541L450 507L600 507L600 561L750 561L750 501L900 501L900 575L900 485L900 424L750 424L750 424L600 424L600 323L450 323L450 424L300 424L300 418L150 418L150 343L0 343Z" fill="#6ab5ff"></path><path d="M0 609L150 609L150 629L300 629L300 622L450 622L450 595L600 595L600 636L750 636L750 609L900 609L900 636L900 573L900 499L750 499L750 559L600 559L600 505L450 505L450 539L300 539L300 553L150 553L150 485L0 485Z" fill="#4ea6ff"></path><path d="M0 676L150 676L150 676L300 676L300 676L450 676L450 676L600 676L600 676L750 676L750 676L900 676L900 676L900 634L900 607L750 607L750 634L600 634L600 593L450 593L450 620L300 620L300 627L150 627L150 607L0 607Z" fill="#2d97ff"></path></svg>