<svg id="visual" viewBox="0 0 900 675" width="900" height="675" xmlns="http://www.w3.org/2000/svg" xmlns:xlink="http://www.w3.org/1999/xlink" version="1.1"><rect width="900" height="675" fill="#d3ebff"></rect><g><g transform="translate(250 424)"><path d="M0 -115.7L100.2 57.9L-100.2 57.9Z" fill="#2d97ff"></path></g><g transform="translate(515 65)"><path d="M0 -90L77.9 45L-77.9 45Z" fill="#2d97ff"></path></g><g transform="translate(176 100)"><path d="M0 -110L95.3 55L-95.3 55Z" fill="#2d97ff"></path></g><g transform="translate(867 492)"><path d="M0 -114L98.7 57L-98.7 57Z" fill="#2d97ff"></path></g><g transform="translate(875 59)"><path d="M0 -81L70.1 40.5L-70.1 40.5Z" fill="#2d97ff"></path></g><g transform="translate(421 634)"><path d="M0 -63L54.6 31.5L-54.6 31.5Z" fill="#2d97ff"></path></g><g transform="translate(678 657)"><path d="M0 -114L98.7 57L-98.7 57Z" fill="#2d97ff"></path></g><g transform="translate(686 311)"><path d="M0 -63L54.6 31.5L-54.6 31.5Z" fill="#2d97ff"></path></g><g transform="translate(58 607)"><path d="M0 -59L51.1 29.5L-51.1 29.5Z" fill="#2d97ff"></path></g><g transform="translate(4 314)"><path d="M0 -71L61.5 35.5L-61.5 35.5Z" fill="#2d97ff"></path></g></g></svg>