<svg id="visual" viewBox="0 0 900 675" width="900" height="675" xmlns="http://www.w3.org/2000/svg" xmlns:xlink="http://www.w3.org/1999/xlink" version="1.1"><rect x="0" y="0" width="900" height="675" fill="#d3ebff"></rect><g fill="#2d97ff"><path d="M36.4 21L36.4 93.9L-36.4 93.9L-36.4 21L-99.5 -15.4L-63.1 -78.5L0 -42.1L63.1 -78.5L99.5 -15.4Z" transform="translate(30 152)"></path><path d="M18.4 10.6L18.4 47.3L-18.4 47.3L-18.4 10.6L-50.1 -7.8L-31.8 -39.5L0 -21.2L31.8 -39.5L50.1 -7.8Z" transform="translate(682 292)"></path><path d="M20.2 11.7L20.2 52.2L-20.2 52.2L-20.2 11.7L-55.3 -8.6L-35.1 -43.6L0 -23.4L35.1 -43.6L55.3 -8.6Z" transform="translate(24 539)"></path><path d="M30.5 17.6L30.5 78.6L-30.5 78.6L-30.5 17.6L-83.3 -12.9L-52.8 -65.7L0 -35.2L52.8 -65.7L83.3 -12.9Z" transform="translate(494 9)"></path><path d="M29.4 17L29.4 75.8L-29.4 75.8L-29.4 17L-80.4 -12.4L-50.9 -63.4L0 -34L50.9 -63.4L80.4 -12.4Z" transform="translate(295 308)"></path><path d="M20 11.5L20 51.5L-20 51.5L-20 11.5L-54.6 -8.4L-34.6 -43L0 -23.1L34.6 -43L54.6 -8.4Z" transform="translate(384 584)"></path><path d="M29.7 17.1L29.7 76.5L-29.7 76.5L-29.7 17.1L-81.1 -12.5L-51.4 -64L0 -34.3L51.4 -64L81.1 -12.5Z" transform="translate(845 511)"></path></g></svg>